# xmcd
#
# Track frame offsets:
#	150
#	16774
#	30487
#	45635
#	66870
#	84594
#	101649
#	120944
#	138026
#	155507
#	176268
#	191425
#	205297
#
# Disc length: 2882 seconds
#
# Revision: 0
# Processed by: cddbd v1.5.2PL0 Copyright (c) Steve Scherf et al.
# Submitted via: VUPlayer 2.49
#
DISCID=9a0b400d
DTITLE=Owen Campbell - Sunshine Road
DYEAR=2011
DGENRE=Blues
TTITLE0=Sunshine Road
TTITLE1=Holy To Me
TTITLE2=A Mountain Home
TTITLE3=Diggin' Holes
TTITLE4=Bobby The Leper
TTITLE5=Colony Boy
TTITLE6=Mean Ol' Devil and A Futile God
TTITLE7=A Masterpiece With You
TTITLE8=Jungle Man
TTITLE9=War In The East
TTITLE10=Flower In The Gulags
TTITLE11=Nashville Highrollers
TTITLE12=Thirsty Now...
EXTD=
EXTT0=
EXTT1=
EXTT2=
EXTT3=
EXTT4=
EXTT5=
EXTT6=
EXTT7=
EXTT8=
EXTT9=
EXTT10=
EXTT11=
EXTT12=
PLAYORDER=
